Patient4_TMGait_0pt5_02_right_13_GRF.mot
version=1
nRows=52
nColumns=19
inDegrees=no
endheader
time	F1x	F1y	F1z	M1x	M1y	M1z	F2x	F2y	F2z	M2x	M2y	M2z	EC1x	EC1y	EC1z	EC2x	EC2y	EC2z
17.01	7.8188	713.9378	56.7443	-253.5244	-40.8073	571.9126	3.3335	-1.5161	4.9487	-1.6123	-1.158	-3.5296	-0.0592	0.0182	-0.0073	-0.0462	0.0165	0.9585
17.0231	8.2057	714.7093	57.6614	-253.4375	-41.2324	572.286	1.9714	-0.19832	3.2714	-0.78696	-0.57819	-1.6373	-0.0592	0.0182	-0.0073	-0.0462	0.0165	0.9585
17.0363	8.7871	716.6514	58.6897	-253.7521	-41.6183	572.9534	0.83041	0.95852	1.8262	-0.067552	-0.085583	0.010449	-0.0592	0.0182	-0.0073	-0.0462	0.0165	0.9585
17.0494	9.5311	719.9887	59.7721	-254.5707	-41.937	574.0798	-0.040696	1.8952	0.71017	0.50362	0.29334	1.3309	-0.0592	0.0182	-0.0073	-0.0462	0.0165	0.9585
17.0626	10.4018	724.6816	60.849	-255.9032	-42.1573	575.6899	-0.64891	2.6032	-0.073179	0.92186	0.56316	2.309	-0.0592	0.0182	-0.0073	-0.0462	0.0165	0.9585
17.0757	11.3771	730.4603	61.8787	-257.6694	-42.2567	577.6526	-1.0414	3.0912	-0.56486	1.1991	0.74266	2.9609	-0.0592	0.0182	-0.0073	-0.0462	0.0165	0.9585
17.0889	12.4687	736.9121	62.8087	-259.7309	-42.1934	579.7281	-1.2761	3.3756	-0.83633	1.3547	0.86535	3.3337	-0.0592	0.0182	-0.0073	-0.0462	0.0165	0.9585
17.102	13.7201	743.5628	63.6054	-261.9224	-41.9306	581.6151	-1.4052	3.4515	-0.95528	1.4002	0.95107	3.4617	-0.0592	0.0182	-0.0073	-0.0462	0.0165	0.9585
17.1151	15.1963	749.9715	64.2333	-264.0873	-41.4205	583.0398	-1.4848	3.2931	-0.98287	1.3356	1.0169	3.3477	-0.0592	0.0182	-0.0073	-0.0462	0.0165	0.9585
17.1283	16.9712	755.7963	64.6838	-266.0967	-40.637	583.7968	-1.5383	2.8362	-0.96371	1.1443	1.0649	2.9338	-0.0592	0.0182	-0.0073	-0.0462	0.0165	0.9585
17.1414	19.0852	760.8332	64.9607	-267.8615	-39.5757	583.7961	-1.5821	2.0115	-0.92442	0.80237	1.0954	2.1593	-0.0592	0.0182	-0.0073	-0.0462	0.0165	0.9585
17.1546	21.5358	764.9972	65.0879	-269.3288	-38.2618	583.0472	-1.6008	0.73671	-0.87713	0.28217	1.0973	0.94184	-0.0592	0.0182	-0.0073	-0.0462	0.0165	0.9585
17.1677	24.2738	768.2807	65.1004	-270.469	-36.7455	581.6365	-1.5633	-1.0426	-0.8187	-0.43388	1.0472	-0.76324	-0.0592	0.0182	-0.0073	-0.0462	0.0165	0.9585
17.1809	27.1868	770.6674	65.0389	-271.2475	-35.1051	579.6622	-1.4052	-3.3048	-0.73479	-1.3344	0.9073	-2.9368	-0.0592	0.0182	-0.0073	-0.0462	0.0165	0.9585
17.194	30.1428	772.0625	64.9499	-271.606	-33.4375	577.145	-1.0395	-5.8867	-0.60081	-2.3524	0.62539	-5.435	-0.0592	0.0182	-0.0073	-0.0462	0.0165	0.9585
17.2071	33.0095	772.2729	64.8713	-271.4572	-31.8344	574.0153	-0.37896	-8.3891	-0.38645	-3.3299	0.14289	-7.8831	-0.0592	0.0182	-0.0073	-0.0462	0.0165	0.9585
17.2203	35.7029	771.0087	64.8308	-270.6898	-30.3614	570.0986	0.67309	-10.1105	-0.055315	-3.988	-0.6045	-9.6153	-0.0592	0.0182	-0.0073	-0.0462	0.0165	0.9585
17.2334	38.2046	767.9753	64.8281	-269.2005	-29.0385	565.187	2.1636	-9.9322	0.41804	-3.8849	-1.649	-9.5513	-0.0592	0.0182	-0.0073	-0.0462	0.0165	0.9585
17.2466	40.5523	762.9333	64.8568	-266.9149	-27.8614	559.084	4.0838	-6.286	1.0444	-2.4004	-2.9816	-6.1997	-0.0592	0.0182	-0.0073	-0.0462	0.0165	0.9585
17.2597	42.8478	755.7216	64.8808	-263.795	-26.7775	551.6273	6.2878	2.8472	1.7894	1.262	-4.4994	2.3663	-0.0592	0.0182	-0.0073	-0.0462	0.0165	0.9585
17.2729	45.2202	746.1634	64.8308	-259.8095	-25.6995	542.6328	8.4401	19.776	2.5598	8.0119	-5.9732	18.3561	-0.0592	0.0182	-0.0073	-0.0462	0.0165	0.9585
17.286	47.7803	733.9184	64.5712	-254.8829	-24.4982	531.7966	9.9336	46.7471	3.1735	18.731	-6.9816	43.9353	-0.0592	0.0182	-0.0073	-0.0462	0.0165	0.9585
17.2991	50.5631	718.3428	63.9085	-248.8417	-23.0259	518.6234	9.799	85.3542	3.3518	34.035	-6.8703	80.6737	-0.0592	0.0182	-0.0073	-0.0462	0.0165	0.9585
17.3123	53.4825	698.3931	62.595	-241.3741	-21.1352	502.3667	6.7976	135.6912	2.8267	53.9407	-4.8975	128.7348	-0.0592	0.0182	-0.0073	-0.0462	0.0165	0.9585
17.3254	56.2569	672.6363	60.3732	-232.0263	-18.7373	482.0609	0.068487	195.4604	1.3036	77.5111	-0.46327	185.9992	-0.0592	0.0182	-0.0073	-0.0462	0.0165	0.9585
17.3386	58.4346	639.5002	57.0204	-220.2844	-15.8293	456.6887	-9.6828	259.5729	-1.5338	102.6937	6.4265	247.6188	-0.0592	0.0182	-0.0073	-0.0462	0.0165	0.9585
17.3517	59.4708	597.797	52.4822	-205.747	-12.5596	425.5307	-20.3564	321.1956	-5.8415	126.7534	15.0452	306.952	-0.0592	0.0182	-0.0073	-0.0462	0.0165	0.9585
17.3649	58.8625	547.2915	46.9429	-188.3135	-9.2199	388.5173	-29.935	374.6697	-11.1573	147.4627	24.089	358.369	-0.0592	0.0182	-0.0073	-0.0462	0.0165	0.9585
17.378	56.3058	488.9691	40.8035	-168.2796	-6.1731	346.3881	-37.4421	418.2963	-16.8535	164.1699	32.535	400.1245	-0.0592	0.0182	-0.0073	-0.0462	0.0165	0.9585
17.3911	51.7477	424.9276	34.5178	-146.3138	-3.7244	300.6124	-42.8247	454.1775	-22.1661	177.7441	39.63	434.215	-0.0592	0.0182	-0.0073	-0.0462	0.0165	0.9585
17.4043	45.3771	358.0147	28.4184	-123.3531	-2.0227	253.1391	-46.5513	486.2091	-26.6714	189.7604	45.1764	464.3882	-0.0592	0.0182	-0.0073	-0.0462	0.0165	0.9585
17.4174	37.5328	291.4731	22.6922	-100.49	-1.0776	206.1823	-49.1741	518.2867	-30.244	201.7837	49.3126	494.3198	-0.0592	0.0182	-0.0073	-0.0462	0.0165	0.9585
17.4306	28.7104	228.5515	17.4398	-78.838	-0.79169	161.9394	-51.176	553.2521	-33.2414	214.9271	52.6054	526.665	-0.0592	0.0182	-0.0073	-0.0462	0.0165	0.9585
17.4437	19.5828	172.1161	12.7564	-59.3897	-0.9942	122.3316	-52.8827	592.1936	-36.0707	229.6014	55.5985	562.4046	-0.0592	0.0182	-0.0073	-0.0462	0.0165	0.9585
17.4569	10.9407	124.1587	8.7593	-42.8424	-1.4789	88.6715	-54.4945	634.1034	-39.1602	245.393	58.7919	600.5851	-0.0592	0.0182	-0.0073	-0.0462	0.0165	0.9585
17.47	3.4787	85.4406	5.5349	-29.4726	-2.0519	61.4395	-56.0489	676.3461	-42.623	261.2688	62.3152	638.7421	-0.0592	0.0182	-0.0073	-0.0462	0.0165	0.9585
17.4831	-2.3478	55.6149	3.1013	-19.1721	-2.5611	40.3828	-57.4781	715.715	-46.3897	275.9879	66.0822	673.9042	-0.0592	0.0182	-0.0073	-0.0462	0.0165	0.9585
17.4963	-6.2856	33.6353	1.4118	-11.584	-2.8893	24.7791	-58.6748	749.3713	-50.1401	288.4742	69.7494	703.4562	-0.0592	0.0182	-0.0073	-0.0462	0.0165	0.9585
17.5094	-8.2488	18.123	0.35368	-6.2322	-2.9391	13.684	-59.5014	775.2824	-53.5867	297.9743	72.9896	725.5407	-0.0592	0.0182	-0.0073	-0.0462	0.0165	0.9585
17.5226	-8.3864	7.6772	-0.23508	-2.633	-2.657	6.1312	-59.8245	792.3947	-56.3928	304.1173	75.4377	739.2194	-0.0592	0.0182	-0.0073	-0.0462	0.0165	0.9585
17.5357	-7.2151	1.124	-0.49032	-0.37892	-2.1356	1.3173	-59.4979	800.6292	-58.359	306.9065	76.8597	744.4278	-0.0592	0.0182	-0.0073	-0.0462	0.0165	0.9585
17.5489	-5.4714	-2.4371	-0.54926	0.84401	-1.5323	-1.3535	-58.4154	800.8595	-59.3739	306.7044	77.1187	741.9606	-0.0592	0.0182	-0.0073	-0.0462	0.0165	0.9585
17.562	-3.6511	-3.8982	-0.47941	1.342	-0.98352	-2.4918	-56.5219	794.7901	-59.5088	304.1803	76.2667	733.3524	-0.0592	0.0182	-0.0073	-0.0462	0.0165	0.9585
17.5751	-2.0514	-4.0221	-0.36165	1.3757	-0.53484	-2.6311	-53.8429	784.7501	-58.9004	300.2328	74.447	720.6912	-0.0592	0.0182	-0.0073	-0.0462	0.0165	0.9585
17.5883	-0.78752	-3.4118	-0.21342	1.1535	-0.22136	-2.2251	-50.5059	773.332	-57.7519	295.8544	71.8985	706.3002	-0.0592	0.0182	-0.0073	-0.0462	0.0165	0.9585
17.6014	0.12262	-2.4848	-0.081277	0.82172	-0.011933	-1.5742	-46.7193	762.9986	-56.2499	291.9818	68.8674	692.397	-0.0592	0.0182	-0.0073	-0.0462	0.0165	0.9585
17.6146	0.72012	-1.5146	0.034758	0.47759	0.10426	-0.87385	-42.743	755.6993	-54.5883	289.3479	65.6211	680.7621	-0.0592	0.0182	-0.0073	-0.0462	0.0165	0.9585
17.6277	1.0748	-0.64311	0.11553	0.17144	0.16732	-0.23356	-38.8398	752.6222	-52.9283	288.3881	62.3979	672.5123	-0.0592	0.0182	-0.0073	-0.0462	0.0165	0.9585
17.6409	1.2415	0.066063	0.17187	-0.073407	0.18765	0.30656	-35.2413	754.0975	-51.4225	289.2011	59.4096	668.0242	-0.0592	0.0182	-0.0073	-0.0462	0.0165	0.9585
17.654	1.2947	0.59929	0.19726	-0.25428	0.1972	0.71716	-32.1133	759.6565	-50.1692	291.5756	56.7907	666.9816	-0.0592	0.0182	-0.0073	-0.0462	0.0165	0.9585
17.6671	1.2646	0.98035	0.20863	-0.37968	0.19198	1.0168	-29.5207	768.179	-49.2147	295.0538	54.5927	668.5051	-0.0592	0.0182	-0.0073	-0.0462	0.0165	0.9585
17.6803	1.198	1.2221	0.2061	-0.45891	0.18481	1.1997	-27.4181	778.1397	-48.5467	299.0301	52.7799	671.3623	-0.0592	0.0182	-0.0073	-0.0462	0.0165	0.9585
